<svg version="1.2" xmlns="http://www.w3.org/2000/svg" viewBox="0 0 4292 843" width="4292" height="843">
	<title>Basmala</title>
	<style>
		.s0 { fill: #ffffff } 
	</style>
	<path id="path2283" class="s0" d="m4077.8 586.5c-0.1 8.3-21.8 24-65.3 46.5-41.3 21.5-65.3 32.3-72.3 32.3 6-13.8 26.5-31 61.3-52.3 33.7-20.5 58.5-31.8 74.5-33.5 1.2 0.8 1.7 3 1.7 7z"/>
	<path id="path2285" class="s0" d="m4063.3 537.3c-0.1 3.5-1.1 9-3.3 16.5-2.8 8.7-5.3 13.2-7.5 13.2-3.5 0-9.8-3-19.3-9-9.2-6-14.2-10.2-14.7-13 0-4.5 1.5-10 4.2-16.2 3-7.5 6.5-11.3 10-11.3 2.5 0 8 2.8 17 8.3 9 5.7 13.5 9.5 13.5 11.5z"/>
	<path id="path2287" class="s0" d="m3931.3 329c-0.1 2-1.8 7-5.6 15.3-4.7 11.7-13.2 19.9-25.5 23.9-12 4.3-24 8.3-35.7 12.1l-1-1.8c0-4.2 5.5-9.7 16-16.5 8.7-5.5 16.2-9.5 22.5-11.7-6.5-1.5-10-2.3-11-2.3-17.3 0-26.5 0.5-28 1.8-5 4.2-7.3 6.2-6.8 6.2-1 0-5.7-2-5.7-3.3 0-23.9 26-34 46-34 16.7 0 27 0.5 31 1.3q3.7 1.1 3.7 9z"/>
	<path id="path2289" class="s0" d="m1947.5 568.3q0 12.7-65.3 46.5c-40.7 21.5-65 32.2-72.2 32.2 6.3-14 26.3-31.2 60.5-52.2q49.5-29.7 75-33c1.3 0.2 2 2.5 2 6.5z"/>
	<path id="path2291" class="s0" d="m1895 412.5c0 7.8-2.3 12.3-6.8 13-3.7-35-7.2-70-10.9-105-4.5-40.3-9.3-75-14.6-104l12.8-22.5c13 76.3 19.5 149 19.5 218.5z"/>
	<path id="path2293" class="s0" d="m1699.5 580c0 8.8-21.8 24.5-65.3 47-41.2 21.5-65.2 32.3-72.2 32.3 6-14 26.3-31.3 60.5-52 33-20.3 58-31.3 74.8-33.5 1.5 0.2 2.2 2.2 2.2 6.2z"/>
	<path id="path2295" class="s0" d="m1724 325.5c0 19.3-7.3 29-22 29-5.3 0-8.5-1.3-9.3-3.5-1.4 3-4.7 6-9.7 8.8-5.3 2.4-9.5 3.9-13.3 3.9-12.2 0-18.4-6.7-18.4-19.9-0.1-9.6 2.7-19.8 8.4-30.6h11.8c0 1.8-0.5 4.5-2 8-1.3 3.5-1.8 6.3-1.8 8.3 0 4.2 2.3 6.2 6.8 6.2 9.7 0 14.7-8.7 14.7-26.7l11-7.5c-0.5 2.5-0.7 8-0.7 16 0 7.5 2.2 11 7.2 11 4.3 0 6.3-6.5 6.3-19.8l9.3-7.2c1.2 16.8 1.7 24.8 1.7 24z"/>
	<path id="path2297" class="s0" d="m1690.3 277.3l-7.3 4.2c-1-9.3-4.2-20.8-10.2-34.3-6-13.5-12-23.5-18.3-30l10.3-27.5q25.5 7.9 25.5 72.8z"/>
	<path id="path2299" class="s0" d="m1145.3 432.3c0 6.2-0.3 10.9-0.5 13.9l-8.8 1.8c-0.2-11.5-2.5-23.8-6.5-36.5-5-14.5-11.2-25-18.5-31.3l3.3-33.5q14.6 8.7 23.2 39c5.3 17 7.8 32.5 7.8 46.5z"/>
	<path id="path2301" class="s0" d="m1257.5 275.3c0 1.9-1.8 6.9-5.3 15.2-5 11.5-13.7 19.7-26.2 24.5-11.8 3.7-23.5 7.5-35.5 11.5-0.3-1.5-0.5-2.3-0.5-2.3q0-6.3 15.8-16.5 13.4-8.2 22.4-11.2c-6-1.8-9.7-2.8-10.9-2.8-16.8 0-26.1 0.8-28.1 2.3-0.2 0.2-1.2 1.5-2.9 3.2q-2.7 3-3.8 3c-0.5 0-1.7-0.5-3.5-1.5-1.5-1-2.5-1.7-2.5-2.2 0-2.3 1.3-6.3 4-12.3 5.5-14 19.8-21.2 42.3-21.2 16.5 0 27 0.5 30.7 1.2 2.8 0.8 4 3.8 4 9z"/>
	<path id="path2303" class="s0" d="m1241.8 194c0 8.3-18.8 21.8-56.3 41-23.5 11.5-47 23-70.2 34.3-1.5 2.2-4.5 3.5-9 3.5l-2-0.5c11-24.8 49-50.8 113.7-77.5q19.1-7.5 21.8-7.5h0.2c1.3 2.7 1.8 5 1.8 6.7z"/>
	<path id="path2305" class="s0" d="m1380.5 304.5c0 9.3-2.3 18.8-6.8 28.3-5.2 11.7-11.9 17.4-20.2 17.4-1.5 0.1-3.8-0.7-7.3-1.7-4.2 6-10.7 8.8-19.7 8.8-12.3-0.1-18.3-7.5-18.3-22.8 0-20 5-30 14.8-30 1.2 0 2 0.8 2.2 2.5 0.3 0.8 0.3 2.5 0 4.8-0.2 2.5-0.5 3.7-0.5 3.7 0 9.3 2.8 14 8 14 8 0 12-9.3 12-27.5l6.3-7.2q3 0.3 4.5 12c1 7.7 3.2 11.7 7 11.7 5 0 7.5-7 7.5-20.8l9-5.4c1 2.2 1.5 6.2 1.5 12.2z"/>
	<path id="path2307" class="s0" d="m1415.8 202.8c0 8.4-18.5 22.4-56 41.4-23.5 11.8-47.3 23-70.5 34.3-1.8 2.5-4.8 3.5-9.5 3.5l-1.5-0.5q9.3-20.6 63.7-53.3c35-21.2 59.3-31.7 72.5-31.7 0.8 4.2 1.3 6.2 1.3 6.2z"/>
	<path id="path2309" class="s0" d="m1542 517.8c0 8-2.5 12.2-7.3 13.2-3.7-35-7.5-70-10.9-105-4.5-40.5-9.3-75.2-14.6-104.2l13.3-22.8c13 80.5 19.5 153.3 19.5 218.8z"/>
	<path id="path2311" class="s0" d="m316 604.5c0-3.5-0.8-5.8-1.8-6.3-14.4 2-34 12.6-58.7 31.8-27.2 21-40.8 38.8-40.8 53.8l0.1-3c4.5-5 23.4-18 57.2-39 29.2-17.8 44-30 44-37.3z"/>
	<path id="path2313" class="s0" d="m558 589.3c0 3.5-1 9-3.3 16.5-3 8.7-5.5 13.2-7.7 13.2-3.3 0-9.8-3-19.3-8.7q-14.2-8.7-14.9-12.8h0.5c0.2-5.2 1.7-10.5 4.5-16.5 2.5-5.7 6-9.5 9.7-11.5 20.5 8.5 30.5 15 30.5 19.8z"/>
	<path id="path2315" class="s0" d="m602 580c0 3.5-1 9-2.8 16.5-2.7 8.8-5.2 13.3-7.7 13.3-3.3-0.1-9.8-3.1-19.5-8.8-9.5-5.8-14.5-10-15.3-13h0.6c0-3.5 1.5-9 4.2-16 3.3-8.3 6.5-12.3 9.3-12.3 1.9 0.1 7.7 3.1 17.2 8.8 9.5 6 14 9.8 14 11.5z"/>
	<path id="path2317" class="s0" d="m693.5 635c0 6.5 0 11.3-0.5 14.5l-8.8 1.8c-0.2-11.8-2.4-23.8-6.2-36.5-5.2-14.8-11.5-25.1-18.8-31.3l3.6-34q14.2 9 23.2 39 7.5 25.1 7.5 46.5z"/>
	<path id="path2319" class="s0" d="m440 235c0 2-1.8 7-5 15.3-5 11.4-13.8 19.7-26.3 24.4-11.9 3.8-23.7 7.6-35.7 11.6-0.2-1.5-0.2-2-0.2-2 0-4.3 5.2-9.8 16-16.8q13.5-8.6 22.5-11.2c-6-1.8-9.8-2.5-11-2.5-16.8 0-26 0.5-28 2-0.3 0.2-1.3 1.5-3.3 3.5-1.7 2-3 2.7-3.5 2.7-1 0-2-0.5-3.7-1.2-1.5-1-2.3-2-2.3-2.5 0-2.3 1.3-6.3 3.8-12.3 5.7-14 19.7-21.3 42.5-21.3q26.2 0.1 30.7 1.6c2.3 0.5 3.5 3.5 3.5 8.7z"/>
	<path id="path2321" class="s0" d="m1110 680c0 8.8-21.5 24.3-65 47-41.3 21-65.5 31.8-72.5 31.8 11.3-25.1 49.3-50.8 114-77.5 12.5-5.1 19.8-7.8 21.5-7.8l0.8 0.5c0.9 2.2 1.2 4.2 1.2 6z"/>
	<path id="path2323" class="s0" d="m874.8 197c-8 11.5-54.3 32.5-138.8 62.5-66.5 23.8-144.7 49.5-235 77-82.2 25-128.7 38-139.7 39l-3.8-3c9.8-12.5 27.5-24 52.8-33.8 5.2-2 25.7-8.5 62-19.5 68.2-21.5 136.5-42.7 204.7-64 126.3-39.2 192-58.7 197.8-58.7z"/>
	<path id="path2325" class="s0" d="m978 559.8q0 4.8-3 16.5c-2.5 8.7-5 13-7.5 13-3.5 0-10-2.8-19.5-8.5-9.5-5.8-14.8-10.3-15.3-13h0.6q0-6.4 4.5-17.3c3.2-7 6.5-10.7 9.7-10.7 2.3 0 8 3 17 8.5 9 5.7 13.5 9.5 13.5 11.5z"/>
	<path id="path2327" class="s0" d="m951.8 451c0 13.8-3.3 27-10.3 39.8-7.5 14.2-17.5 23.2-29.5 26.7-2 3.3-3 8.8-3 16 0 17-10.7 35.5-32 56-21.2 20.5-40.2 30.8-57.2 30.8q-16.2 0-36-10.5c-13.3-7.3-23-15.3-28.8-24.3l4.5-4.2c5.3 5.5 19.3 8 42 8q21 0 55.5-18c25-13.8 37.8-26.8 37.8-39 0-4-2-8.3-5.5-12.8-5.3-6.7-8-10.5-8.5-11.5 1-12.2 3-20.5 6-24.2 3-3.8 9.7-5.8 20.2-5.8q10.1 0 20.3-9c6.7-6.2 10.2-12.5 10.2-19.2 0-17-4.2-42.3-12.7-75.5-8.5-33.3-12.8-58-12.8-74 0-26.5 4-39.8 11.8-39.8l4.7 0.8c0 10.7 3.8 18.4 11 23.2 0.8 5.8 1.3 10.8 1.3 14.8 0 1.7-0.8 4.2-2 7.7-1.5 3.3-2.3 5.8-2.3 6.8 0 15.2 2.5 38 7.8 68.5 5 30.4 7.5 53.5 7.5 68.7z"/>
	<path id="path2329" class="s0" d="m871.8 295.3c0 9.2-2.3 18.7-6.8 28.2-5.2 11.5-12.2 17.2-20.2 17.2-1.5 0-4-0.5-7.3-1.5-4.2 5.8-10.7 8.8-19.5 8.8-12.5 0-18.5-7.5-18.5-22.8 0-20 4.8-30 14.8-30 1 0 1.7 0.8 2 2.5 0.2 1 0.2 2.8 0 5-0.3 2.5-0.3 3.8-0.3 3.8 0 9 2.5 13.5 8 13.5 7.8 0 11.8-9 11.8-27.5l6.5-6.8c1.7 0.3 3.5 4.3 4.5 12 1.2 7.5 3.5 11.3 7.2 11.3 4.8 0 7.3-6.8 7.3-20.8l8.7-5.5c1.3 3 1.8 7 1.8 12.5z"/>
	<path id="path2331" class="s0" d="m1037.3 500.5c0 7.5-2.3 11.8-7.3 12.8-3.5-35-7.2-70-11-105q-6.7-60.8-14.2-104.3l13-22.5q19.5 120.8 19.5 219z"/>
	<path id="path2333" class="s0" d="m1940.8 521.5c-3 7.8-11.8 11.5-26.3 11.5-17.2 0-28.7-5-34.7-15.3q-16.5 31.9-42.8 45.8c-13.7 7-34.5 12.5-62.2 16v-8c31-11.7 62.2-33.8 93.2-65.5 0-41.3 10.8-61.8 32.5-61.8 7.8 0.1 17.5 5.8 29.5 17.8 12 11.8 23.3 18.3 33.5 19v0.8c212.5 31.2 501.3 47.5 951.3 47.5 304-0.1 669-28.3 928.5-61 8.5-1.1 17.2 21.4 31.7 21.4 25.8 0.1 57-13.7 57-43.4l7-4.3c1.5 4.3 2.5 12.5 2.5 24.5 0 3.3 7.8 7.8 10.5 7.8 18.3-0.1 24.5-22.8 24.5-37.3l9-5.3c0.5 11.3 15 18.8 25 18.8 7.5 0 27.8-4.8 27.8-14.5 0-18.5-12.8-51.3-38.8-98-2.2 0-4.7 2.2-7.5 7.2q-4.1 7.5-9 7.5l-1-0.5c6-40.5 11.3-61 15.8-61l1.2 0.5c26.8 39.5 54.5 95.8 54.5 144.3 0 19.5-11.5 47.5-34.5 47.5-15.2 0-26-9-31.7-27-8.5 22.5-18.3 40.5-29 54-12 1.2-27.5 3.7-37.5-4.5-7.8 14.2-32.3 20.2-47 20.2-13.3 0-26.5-27.5-27-27.5-237.5 35.5-658 71.5-971.3 71.5-1 0-2 0-3.2 0q-1.5 0-3 0c-391.8 2.5-866.5-27-928.5-48.7zm-29.8-32c0-10.3-2.7-15.3-8.2-15.3-3.8 0-7.8 2-12.3 6.3z"/>
	<path id="path2335" class="s0" d="m1919.5 100.5q0 20.3-19.5 37.5c-12.8 11.8-26.3 17.5-39.8 17.5-5 0-10.7-1.8-17.5-5.3-6.7-3.7-11.2-5.5-14.2-5.5-3.3 0-7 3.5-11 10.1q-6 10.1-11.3 10.4 1.2-15.3 12.8-29.9c7.7-9.8 16.7-14.6 26.5-14.6 4.7 0 10.5 1.3 17 3.8 6.2-8.5 12.2-17 18.5-25.8 8.5-9.7 17.5-14.5 26.7-14.5 3.3 0 6.3 1.8 8.5 5.3 2.3 3.7 3.3 7.2 3.3 11zm-22.8 7c-4.5 0.5-9.2 2.7-14.5 7.5-5 4.7-8 9.5-9.2 14.3 0.5 0.2 1.2 0.2 1.7 0.2 6.8 0 11.5-1 14-3.3 5.3-5 8-11.2 8-18.7z"/>
	<path id="path2337" class="s0" d="m1790.5 486c0 15.3-1.3 26.5-3.5 34q-5.6 19.5-23.3 19.5c-9.7 0-18.7-3.5-26.4-10.5-8.1-7-13.6-15.3-16.3-24.8q-3 16.6-16.5 28.6c-9 8.2-19 12.2-30 12.2-17 0-30-9.8-39.5-29-4 7.8-14.3 11.5-30 11.5-20.8 0-31.3-5-31.3-14.8 0.1-28.9 21.3-51.5 63.5-67l-0.7-15.2q3.8-4.5 7.5-9.8c2.5-3.2 3.8-6.7 3.8-9.9 3 19.5 5.7 39 8.5 58.7 4.5 28.3 12.7 42.5 24.9 42.5 9.3 0 16.3-4.8 21.3-14 4.3-7.5 6.3-16 6.3-26 0-7.5-1-17.3-3-29q-3.8-22.5-4.5-29.3c3-3.2 5.5-8 7-14.5 1.7-6.5 3.7-11 5.5-13.5 7.7 35.3 12.7 57.3 15.2 65.5 10.3 33 21.5 49.8 33.5 49.8q6 0 6-21.8c0-6.7-3.5-20.2-10.5-40.2-5.7-16.7-11-30.2-15.7-40.2 2.2-2.8 4.7-7.8 7.2-15.3 2.8-7.2 5.5-12.2 8-15.2 1.8 7.7 8.3 27.2 19.8 58.5 8.7 24.5 13.2 44.2 13.2 59.2zm-161.8-5.5c0.1-3.2-0.4-6.2-1.2-8.7h-2.5c-11.2 0-19 4.5-23 13.5 0 0.7-0.2 2.2-0.7 4.2 0 0.3-0.3 0.5-0.5 0.8 0 2.2 1 4.2 3 6.2 2 1.8 4.2 2.8 6.5 2.8 12.2 0 18.5-6.3 18.5-18.8z"/>
	<path id="path2339" class="s0" d="m1103 539.8c-1.5 122.2-144.8 183.5-412.5 183.5-115.8 0-293.8-32.8-380-172l5.5-3.5c131.3 102.5 260.3 131 395.3 131 189.7 0 346.7-36.3 373.9-108.5-9.9-21.8-14.9-39-14.9-51.5 0-8.3 3.5-16 10.7-23.5h3.3q4.1 0 15.7 3c7.5 2 13 3 16 3v0.2c30-0.7 47.5-7 52.5-18.5 9.3-21.7 23-37.5 41-47.2q12.8-6.8 62.3-21.8c-11.3-7.7-24.5-11.7-40.3-11.7-4.7 0-14 0.7-27.7 2-12 1.2-21.5 1.5-28.8 1q4.9-42.8 39.8-42.8c16.7 0 41.7 5.3 74.5 15.5 34 10.8 59.7 16.5 77 17.5l-13.3 30.8c-13.2 0.7-28.5 2-45.5 4.2-27.2 44.3-40.7 81.5-40.7 112.3 0 17 4.7 30.7 14.2 41 9.5 10.5 22.5 15.7 39.5 15.7 14 0 32.5-6 55.5-18.2 24.8-13.3 37.3-26.3 37.3-39 0-4-2.3-9-6.8-14.5-4.5-5.5-6.7-8.8-6.7-9.5 0-11.5 1.7-19.5 5.7-23.8 3.8-4.2 10.5-6.2 20.5-6.2 6.8 0 13.5-3 20.3-9.3 6.7-6 10.2-12.5 10.2-19.2 0-8.8-6-35.3-17.5-80-12.5-46.5-21.5-74-27.5-82.5-4 7.2-6 11-6 11 0 11.7 2.8 30.2 8.3 55 5.5 25 8.2 43.7 8.2 56.7q0 12.4-6.7 22.5l0.5-10.7c0.5-15-2.5-36.8-9-64.8-6.8-29.2-10-50.7-10-64.7 0-15 4.5-22.3 14-22.3 15.7 0 30.5 26.8 44 80.8 10.7 43.7 16 77.2 16 100.2 0 14-3.3 27.3-10 40-7.8 14.3-17.5 23.3-29.8 26.5-2 3.5-3 8.8-3 16.3 0 19.2-11.2 38.7-33.5 58-22.5 19-43.7 28.7-63.7 28.7-22.5 0-40.3-7.7-53.5-23-13.3-15.2-19.8-34-19.8-56.7 0-32.8 13-72.3 38.8-118.5-38.8 5.7-65 15.2-78.5 28.5 10.2 11.5 15.5 24 15.5 37.2 0 8.8-1.5 16.3-4.5 22.3-3.8 8.2-9.5 12.5-17.5 12.5-13.5 0-27.3-7-41.5-20.5-3.3 10.2-12.5 18-27.5 23.7-8.5 3.3-17.3 6-26.3 6.3-7 0.2-11.5-0.8-13-2.5zm103.3-52.5c0-6.3 0.2-14.8-8.5-14.8-3.8 0-10.5 2.8-10.5 7.3 7.2 5 11 7.5 19 7.5z"/>
	<path id="path2341" class="s0" d="m1566 205.8c0 11.7-6.3 23.7-18.5 36.2q-18.8 18.7-36 18.7c-6.8 0-14-1.7-21.3-5.2-7.2-3.5-12.2-5.3-14.7-5.3-3.5 0-7.3 3.3-11.3 10-3.9 6.5-7.9 10-11.7 10.3q1.9-15.4 12.8-29.3c7.9-10 16.7-15 26.7-15 5.5 0 11.3 1.3 17 3.8 6-8.5 12.3-17.3 18.5-26 8.8-9.5 17.8-14.3 26.8-14.3 3.2 0 6.2 1.8 8.4 5.3 2.3 3.5 3.3 7.2 3.3 10.7zm-22.8 6.8c-4.5 0.2-9.4 3-14.4 7.7-5 4.8-8.3 9.5-9.3 14.3 0.5 0.5 1.3 0.5 2 0.5q21.8 0 21.8-22.5z"/>
	<path id="path2343" class="s0" d="m1061.5 188c0 11.5-6.3 23.8-18.5 36.3-12.3 12.5-24.3 18.7-36.3 18.7q-10.1 0-21-5.2c-7.5-3.5-12.5-5.3-15.2-5.3-3.5 0-7.3 3.3-11 10-4 6.5-7.8 10-11.5 10.3 0.7-10 5-20 13-29.8 7.7-9.7 16.5-14.7 26.2-14.7 5 0 10.5 1.2 17 4 6.3-8.5 12.5-17.3 18.8-26 8.7-9.5 17.5-14.3 26.5-14.3 3.5 0 6.2 1.8 8.5 5.3 2.2 3.5 3.5 7 3.5 10.7zm-23 7.3q-6.8 0.3-14.3 7.5c-5.2 4.5-8.2 9.2-9.5 14 0.8 0.2 1.5 0.5 2.3 0.5q10.1 0 13.5-3c5.5-4.8 8-11 8-19z"/>
	<path id="path2345" class="s0" d="m876.8 426.3l-26.3 33.2q-6.4 0.7-13.5 0.7c-5.5 0-14-0.5-25.2-1.5-11-1-19.3-1.5-24.3-1.5-18 0-36 6-54.2 18.3q-10.5 6.7-39.8 33c-13.5 12.2-23.7 18.2-30.5 18.2-11 0-21.5-12-31.2-35.5-30 27.8-104.5 52.5-160.3 52.5-78.2 0-108.7-14.5-125.5-22.5l-23.2 11.8c-16.5 0-27.8-5-34.3-15.3-17.5 34-42.2 54.5-73.7 61.8v-8c0-2.8 9.2-13.5 28-32.5 11-11 22-22 33.5-33-0.5-41.3 10.5-61.8 33-61.8 3.5 0 15 2 27.5 14.3 34.7 34.7 67.2 45.2 153.2 45.2 68.3 0 105-15.2 147.3-33.7 10.2 14.7 20.5 22 31 22 6.7 0 16.5-4 29.5-11.8 22.2-14 35.2-21.5 38.5-23 17-8.7 33-13.7 48.2-14.7-19.7-4.3-41.7-6.8-66-7.8-41.2-2-62.2-3-63.5-3q5.3-42.7 39.8-42.7c20.7 0 50.5 6 89.7 17.5 41.5 12 72.3 18.7 92.3 19.7zm-561.3 58.5c0-7-1.5-11.7-4.2-14-0.8-0.5-1.5-0.7-1.8-0.7h-3c-3.7 0-7.7 2-11.7 6z"/>
</svg>