<svg version="1.2" xmlns="http://www.w3.org/2000/svg" viewBox="0 0 1000 200" width="750" height="150">
	<title>New Project</title>
	<style>
		.s0 { fill: #000000 } 
		.s1 { fill: none;stroke: #000000;stroke-miterlimit:10;stroke-width: 2 } 
	</style>
	<g id="Folder 1 copy">
		<path class="s0" d="m992.3 93.5l-5.8-5.8-5.8 5.8-5.9 5.8 5.9 5.8 5.8 5.8 5.8-5.8 5.8-5.8zm-9.2 9.2l-3.3-3.4 3.3-3.3 3.4-3.3 3.3 3.3 3.3 3.3-3.3 3.4-3.3 3.3zm-5.7 3.6l-6.9-6.9 6.9-6.9 6.8-6.9-25.2-25.3-25.3-25.3-1.3 1.3-1.2 1.2 13.8 13.8 13.7 13.7-2.2 2.2-2.2 2.2-8-8-8-8-4.7 4.7-4.7 4.6 1.2 1.3 1.3 1.2 3.4-3.5 3.5-3.4 6.7 6.8 6.8 6.8-3.4 3.4-3.4 3.5 8.1 8.1 8.1 8.1 4.6-4.7 4.7-4.6-4.7-4.7-4.6-4.7-1.3 1.2-1.2 1.3 3.5 3.4 3.4 3.5-2.2 2.2-2.2 2.1-5.7-5.6-5.6-5.6 5.6-5.7 5.7-5.6 9 9 9.1 9.1-6.8 6.9-6.9 6.9 6.9 6.9 6.8 6.9-9.1 9-9 9.1-2.2-2.2-2.2-2.2 6.8-6.9 6.9-6.9-4.7-4.6-4.6-4.7-8.1 8.1-8.1 8.1 3.4 3.4 3.4 3.5-6.8 6.8-6.7 6.8-3.5-3.5-3.4-3.4-1.3 1.2-1.2 1.2 4.7 4.7 4.7 4.7 8-8 8-8.1 2.2 2.3 2.2 2.2-13.7 13.7-13.8 13.8 1.2 1.2 1.3 1.2 25.3-25.3 25.2-25.2zm-25.3 15.9l-2.2-2.2 5.7-5.7 5.6-5.6 2.3 2.2 2.2 2.2-5.7 5.6-5.7 5.7zm2.5-22.8c0-0.1-3.4-3.6-7.6-7.7l-7.6-7.6-7.7 7.6-7.7 7.7 7.7 7.6 7.7 7.7 7.6-7.6c4.4-4.4 7.7-7.7 7.6-7.7zm-19.7 4.4l-4.4-4.4 4.4-4.5 4.5-4.4 4.4 4.4 4.4 4.5-4.4 4.4-4.4 4.5z"/>
		<path class="s0" d="m7.8 105.5l5.8 5.8 5.8-5.8 5.8-5.8-5.8-5.8-5.8-5.8-5.8 5.8-5.8 5.8zm9.1-9.2l3.4 3.4-3.4 3.3-3.3 3.4-3.3-3.4-3.4-3.3 3.4-3.4 3.3-3.3zm5.7-3.5l6.8 6.8-6.8 6.9-6.9 6.9 25.3 25.3 25.3 25.3 1.2-1.2 1.3-1.3-13.8-13.7-13.7-13.8 2.2-2.2 2.2-2.2 8 8 8 8 4.7-4.6 4.7-4.7-1.3-1.2-1.2-1.2-3.4 3.4-3.5 3.4-6.8-6.8-6.8-6.8 3.5-3.4 3.4-3.4-8.1-8.1-8.1-8.1-4.7 4.6-4.7 4.7 4.7 4.6 4.7 4.7 1.2-1.2 1.3-1.2-3.5-3.5-3.4-3.4 2.2-2.2 2.2-2.2 5.7 5.6 5.6 5.7-5.6 5.6-5.7 5.7-9.1-9.1-9-9.1 6.8-6.9 6.9-6.9-6.9-6.8-6.8-6.9 9-9.1 9.1-9.1 2.2 2.2 2.2 2.3-6.9 6.8-6.9 6.9 4.7 4.7 4.7 4.6 8.1-8.1 8.1-8.1-3.4-3.4-3.5-3.4 6.8-6.8 6.8-6.8 3.5 3.4 3.4 3.4 1.2-1.2 1.3-1.2-4.7-4.7-4.7-4.6-8 8-8 8-2.2-2.2-2.2-2.2 13.7-13.8 13.8-13.7-1.3-1.3-1.2-1.2-25.3 25.3-25.3 25.3zm25.3-16l2.2 2.3-5.6 5.6-5.7 5.6-2.2-2.2-2.2-2.2 5.7-5.6 5.6-5.7zm-2.5 22.9c0 0 3.5 3.5 7.7 7.7l7.6 7.6 7.7-7.7 7.6-7.6-7.6-7.7-7.7-7.7-7.6 7.7c-4.5 4.4-7.7 7.6-7.7 7.7zm19.8-4.5l4.4 4.5-4.4 4.4-4.5 4.4-4.4-4.4-4.5-4.4 4.5-4.5 4.4-4.4z"/>
		<path id="Shape 1" fill-rule="evenodd" class="s1" d="m82.5 151.5v-103.2h835.8v103.2z"/>
	</g>
</svg>